<svg data-logo="logo" xmlns="http://www.w3.org/2000/svg" viewBox="0 0 211 45">
                <g id="logogram" transform="translate(0, 2)"><path d="M23.3199 8.26584C22.7109 6.79484 21.8179 5.45884 20.6929 4.33384C19.5679 3.20884 18.2309 2.31584 16.7609 1.70684C15.2889 1.09584 13.7129 0.782837 12.1209 0.782837C11.7619 0.782837 11.4059 0.803837 11.0499 0.835837C10.9439 0.845837 10.8389 0.858837 10.7339 0.870837C10.4719 0.900837 10.2109 0.939837 9.95185 0.986837C9.84785 1.00584 9.74385 1.02284 9.63985 1.04484C9.29285 1.11784 8.94785 1.19984 8.60885 1.30284C8.60685 1.30284 8.60485 1.30284 8.60285 1.30484C8.26085 1.40884 7.92585 1.53184 7.59485 1.66584C7.55785 1.68084 7.51985 1.69084 7.48285 1.70584C7.42185 1.73084 7.36585 1.76384 7.30585 1.78984C7.06285 1.89484 6.82385 2.00884 6.58685 2.12984C6.49285 2.17784 6.39785 2.22484 6.30485 2.27584C5.99285 2.44684 5.68585 2.62684 5.38885 2.82484C5.38685 2.82584 5.38585 2.82684 5.38385 2.82784C5.08785 3.02584 4.80385 3.24084 4.52785 3.46284C4.44485 3.52984 4.36485 3.59984 4.28285 3.66884C4.08185 3.83984 3.88585 4.01684 3.69685 4.19984C3.64885 4.24584 3.59685 4.28584 3.54985 4.33284C3.52085 4.36184 3.49685 4.39384 3.46885 4.42284C3.21885 4.67784 2.97685 4.93884 2.75085 5.21484C2.74885 5.21784 2.74685 5.21984 2.74485 5.22284C2.52085 5.49584 2.31285 5.78184 2.11385 6.07384C2.05485 6.16084 1.99885 6.24984 1.94185 6.33884C1.79885 6.56084 1.66385 6.78684 1.53485 7.01684C1.48285 7.10984 1.43085 7.20184 1.38085 7.29584C1.21585 7.61084 1.06085 7.93084 0.923855 8.26084L0.921854 8.26484V8.26884C0.783854 8.59884 0.666854 8.93584 0.560854 9.27484C0.528854 9.37584 0.501854 9.47784 0.472854 9.57884C0.399854 9.83284 0.336854 10.0888 0.280854 10.3458C0.258854 10.4498 0.234854 10.5528 0.214854 10.6568C0.149854 11.0048 0.0938545 11.3548 0.0588545 11.7068C0.0588545 11.7088 0.0588545 11.7118 0.0588545 11.7138C0.0238545 12.0688 0.00985449 12.4258 0.00685449 12.7828C0.00685449 12.8228 0.000854492 12.8628 0.000854492 12.9028H0.00785449C0.00785449 13.6928 0.0778545 14.4848 0.233854 15.2678C0.701854 17.6188 1.85585 19.7788 3.55085 21.4738C5.24585 23.1688 7.40585 24.3228 9.75685 24.7908C12.1079 25.2588 14.5449 25.0188 16.7599 24.1008C18.9749 23.1838 20.8679 21.6298 22.1999 19.6368C23.5319 17.6438 24.2429 15.2998 24.2429 12.9028C24.2429 11.3108 23.9299 9.73484 23.3199 8.26384V8.26584ZM15.1449 14.9238C14.7459 15.5218 14.1769 15.9878 13.5129 16.2628C12.8479 16.5378 12.1169 16.6098 11.4119 16.4698C10.7059 16.3298 10.0589 15.9828 9.54985 15.4748C9.04085 14.9658 8.69485 14.3188 8.55485 13.6128C8.50085 13.3388 8.48785 13.0618 8.49685 12.7858C8.50185 12.6268 8.51785 12.4688 8.54385 12.3118C8.55385 12.2498 8.56285 12.1878 8.57585 12.1258C8.62185 11.9168 8.67985 11.7098 8.76185 11.5118C8.84385 11.3128 8.94885 11.1258 9.06385 10.9458C9.09785 10.8928 9.13585 10.8428 9.17285 10.7918C9.26485 10.6628 9.36585 10.5408 9.47385 10.4248C9.51685 10.3788 9.55885 10.3318 9.60485 10.2878C9.91485 9.98984 10.2739 9.74984 10.6669 9.57784C10.7249 9.55284 10.7839 9.53184 10.8429 9.50984C10.9919 9.45384 11.1439 9.40784 11.2989 9.37184C11.3599 9.35784 11.4209 9.34184 11.4829 9.33084C11.6939 9.29284 11.9069 9.26784 12.1219 9.26784C12.5999 9.26784 13.0719 9.36184 13.5139 9.54484C13.9549 9.72784 14.3559 9.99584 14.6939 10.3328C15.0319 10.6708 15.2989 11.0718 15.4819 11.5128C15.6649 11.9538 15.7589 12.4268 15.7589 12.9048C15.7589 13.6238 15.5459 14.3268 15.1459 14.9248L15.1449 14.9238Z" fill="url(#paint0_linear_5557_2143)"></path><path d="M22.2 35.3959C23.532 33.4029 24.243 31.0589 24.243 28.6619H15.758C15.758 29.3809 15.545 30.0839 15.145 30.6819C14.746 31.2799 14.178 31.7459 13.513 32.0209C12.848 32.2959 12.117 32.3679 11.412 32.2279C10.707 32.0879 10.059 31.7409 9.54999 31.2329C9.04099 30.7239 8.69499 30.0769 8.55499 29.3709C8.41499 28.6649 8.48699 27.9339 8.76199 27.2699C9.03699 26.6059 9.50299 26.0379 10.101 25.6379C10.698 25.2389 11.399 25.0259 12.116 25.0249H12.121V16.5399H12.118C9.72199 16.5399 7.37899 17.2509 5.38699 18.5829C4.45899 19.2029 3.62699 19.9439 2.90999 20.7829C2.08599 21.7469 1.41299 22.8389 0.922989 24.0229C0.0049895 26.2379 -0.23501 28.6749 0.23299 31.0259C0.70099 33.3769 1.85499 35.5369 3.54999 37.2319C5.24499 38.9269 7.40499 40.0819 9.75599 40.5489C12.107 41.0169 14.544 40.7769 16.759 39.8589C18.974 38.9419 20.867 37.3879 22.199 35.3949L22.2 35.3959Z" fill="url(#paint1_linear_5557_2143)"></path><path d="M27.8788 16.5408C31.0938 16.5408 34.1768 17.8178 36.4498 20.0908C38.7228 22.3638 39.9998 25.4468 39.9998 28.6618C39.9998 31.8768 38.7228 34.9598 36.4498 37.2328C34.1768 39.5058 31.0938 40.7828 27.8788 40.7828V32.2978C28.8428 32.2978 29.7678 31.9148 30.4498 31.2328C31.1318 30.5508 31.5148 29.6258 31.5148 28.6618C31.5148 27.6978 31.1318 26.7728 30.4498 26.0908C29.7678 25.4088 28.8428 25.0258 27.8788 25.0258V16.5408Z" fill="url(#paint2_linear_5557_2143)"></path><path d="M27.8787 40.7828C24.6637 40.7828 21.5807 39.5058 19.3077 37.2328C17.0347 34.9598 15.7577 31.8768 15.7577 28.6618C15.7577 25.4468 17.0347 22.3638 19.3077 20.0908C21.5807 17.8178 24.6637 16.5408 27.8787 16.5408V25.0258C26.9147 25.0258 25.9897 25.4088 25.3077 26.0908C24.6257 26.7728 24.2427 27.6978 24.2427 28.6618C24.2427 29.6258 24.6257 30.5508 25.3077 31.2328C25.9897 31.9148 26.9147 32.2978 27.8787 32.2978V40.7828Z" fill="#1DC2C6"></path><path d="M24.242 12.9038H15.757C15.757 12.9338 15.757 12.9638 15.756 12.9938C15.745 13.4388 15.652 13.8798 15.48 14.2958C15.388 14.5168 15.276 14.7278 15.144 14.9248C15.127 14.9498 15.11 14.9748 15.093 14.9988C14.837 15.3628 14.514 15.6778 14.141 15.9278C13.942 16.0608 13.731 16.1728 13.512 16.2638C13.484 16.2758 13.456 16.2868 13.428 16.2968C13.013 16.4568 12.57 16.5398 12.12 16.5398V25.0248C13.719 25.0248 15.295 24.7088 16.759 24.1018C16.804 24.0838 16.848 24.0648 16.892 24.0458C17.574 23.7538 18.231 23.3978 18.854 22.9818C20.184 22.0928 21.318 20.9548 22.198 19.6378C22.225 19.5978 22.251 19.5578 22.278 19.5168C22.683 18.8948 23.032 18.2338 23.318 17.5418C23.93 16.0638 24.241 14.4878 24.241 12.9028L24.242 12.9038Z" fill="#9BE183"></path><path d="M15.7577 12.9038C15.7577 10.5068 16.4687 8.16283 17.8007 6.16983C19.1327 4.17683 21.0257 2.62283 23.2407 1.70583C25.4547 0.787826 27.8927 0.547826 30.2437 1.01583C32.5947 1.48383 34.7547 2.63783 36.4497 4.33283C38.1447 6.02783 39.2997 8.18783 39.7667 10.5388C40.2347 12.8898 39.9947 15.3268 39.0767 17.5418C38.1597 19.7568 36.6057 21.6498 34.6127 22.9818C32.6197 24.3138 30.2757 25.0248 27.8787 25.0248V16.5398C28.5977 16.5398 29.3007 16.3268 29.8987 15.9268C30.4967 15.5278 30.9627 14.9598 31.2377 14.2948C31.5127 13.6298 31.5847 12.8988 31.4447 12.1938C31.3047 11.4888 30.9577 10.8408 30.4497 10.3318C29.9407 9.82283 29.2937 9.47683 28.5877 9.33683C27.8827 9.19683 27.1507 9.26883 26.4867 9.54383C25.8227 9.81883 25.2547 10.2848 24.8547 10.8828C24.4547 11.4808 24.2417 12.1838 24.2417 12.9028H15.7567L15.7577 12.9038Z" fill="url(#paint3_linear_5557_2143)"></path></g>
                <g id="logotype" transform="translate(44, 0)"><path fill="#1e0e58" d="M4.86 14.99L4.86 10.13L24.38 10.13L24.38 14.99L17.64 14.99L17.64 35.40L11.56 35.40L11.56 14.99L4.86 14.99ZM33.12 35.65L33.12 35.65Q30.93 35.65 28.93 34.97Q26.93 34.28 25.40 32.97Q23.87 31.66 22.99 29.78Q22.11 27.91 22.11 25.50L22.11 25.50Q22.11 23.20 22.95 21.29Q23.80 19.38 25.26 17.98Q26.72 16.57 28.64 15.82Q30.57 15.06 32.73 15.06L32.73 15.06Q34.49 15.06 36.09 15.53Q37.70 16.00 38.97 16.90Q40.25 17.80 40.99 19.02Q41.73 20.24 41.73 21.76L41.73 21.76Q41.73 23.66 40.65 24.92Q39.57 26.18 37.82 26.90Q36.08 27.62 34.01 27.93Q31.94 28.24 29.92 28.20L29.92 28.20Q29.67 28.20 29.33 28.18Q28.98 28.16 28.70 28.15Q28.41 28.13 28.26 28.13L28.26 28.13Q28.48 28.96 29.18 29.62Q29.88 30.29 30.96 30.68Q32.04 31.08 33.20 31.08L33.20 31.08Q34.35 31.08 35.41 30.68Q36.47 30.29 37.34 29.68Q38.20 29.06 38.81 28.31L38.81 28.31L42.70 31.37Q41.62 32.81 40.07 33.76Q38.52 34.72 36.74 35.18Q34.96 35.65 33.12 35.65ZM29.96 24.20L29.96 24.20Q30.93 24.20 31.97 24.10Q33.02 23.99 33.90 23.72Q34.78 23.45 35.34 22.96Q35.90 22.48 35.90 21.72L35.90 21.72Q35.90 21.11 35.46 20.64Q35.03 20.17 34.31 19.92Q33.59 19.67 32.76 19.67L32.76 19.67Q31.32 19.67 30.24 20.35Q29.16 21.04 28.59 22.06Q28.01 23.09 27.94 24.13L27.94 24.13Q28.26 24.17 28.82 24.19Q29.38 24.20 29.96 24.20ZM50.40 35.40L44.32 35.40L44.32 15.31L50.40 15.31L50.40 19.60Q50.84 18.19 51.79 17.18Q52.74 16.18 54.02 15.62Q55.30 15.06 56.63 15.06L56.63 15.06Q59.37 15.06 61.11 16.64Q62.86 18.23 63.26 21.04L63.26 21.04Q63.65 19.06 64.70 17.74Q65.74 16.43 67.20 15.74Q68.66 15.06 70.31 15.06L70.31 15.06Q74.02 15.06 76.05 17.33Q78.09 19.60 78.09 23.63L78.09 23.63L78.09 35.40L72.04 35.40L72.04 24.56Q72.04 22.51 70.98 21.32Q69.92 20.14 68.15 20.14L68.15 20.14Q66.39 20.14 65.33 21.50Q64.26 22.87 64.26 24.92L64.26 24.92L64.26 35.40L58.18 35.40L58.18 24.56Q58.18 22.51 57.14 21.32Q56.09 20.14 54.33 20.14L54.33 20.14Q53.14 20.14 52.28 20.77Q51.41 21.40 50.91 22.48Q50.40 23.56 50.40 24.92L50.40 24.92L50.40 35.40ZM93.68 35.65L93.68 35.65Q91.41 35.65 89.68 34.41Q87.95 33.17 87.23 30.97L87.23 30.97L87.23 44.94L81.15 44.94L81.15 15.31L87.23 15.31L87.23 19.78Q87.95 17.54 89.68 16.30Q91.41 15.06 93.68 15.06L93.68 15.06Q96.30 15.06 98.25 16.43Q100.19 17.80 101.25 20.14Q102.32 22.48 102.32 25.36L102.32 25.36Q102.32 28.27 101.25 30.59Q100.19 32.92 98.25 34.28Q96.30 35.65 93.68 35.65ZM91.70 30.32L91.70 30.32Q92.88 30.32 93.91 29.75Q94.94 29.17 95.53 28.06Q96.12 26.94 96.12 25.36L96.12 25.36Q96.12 23.81 95.53 22.69Q94.94 21.58 93.91 20.96Q92.88 20.35 91.70 20.35L91.70 20.35Q90.51 20.35 89.48 20.96Q88.46 21.58 87.84 22.69Q87.23 23.81 87.23 25.36L87.23 25.36Q87.23 26.94 87.84 28.06Q88.46 29.17 89.48 29.75Q90.51 30.32 91.70 30.32ZM104.37 29.17L104.37 29.17L104.37 8.76L110.45 8.76L110.45 28.88Q110.45 29.68 110.94 30.07Q111.42 30.47 112.07 30.47L112.07 30.47Q112.50 30.47 112.90 30.32L112.90 30.32L113.87 35.00Q112.43 35.65 110.63 35.65L110.63 35.65Q109.12 35.65 107.68 35.04Q106.24 34.43 105.30 33.01Q104.37 31.58 104.37 29.17ZM121.32 35.40L115.28 35.40L115.28 15.31L121.32 15.31L121.32 35.40ZM118.34 13.19L118.34 13.19Q116.57 13.19 115.46 12.18Q114.34 11.17 114.34 9.66L114.34 9.66Q114.34 8.11 115.46 7.09Q116.57 6.06 118.34 6.06L118.34 6.06Q120.06 6.06 121.18 7.09Q122.30 8.11 122.30 9.66L122.30 9.66Q122.30 11.17 121.18 12.18Q120.06 13.19 118.34 13.19ZM127.37 35.65L127.37 35.65Q125.72 35.65 124.69 34.68Q123.66 33.71 123.66 32.27L123.66 32.27Q123.66 30.83 124.69 29.84Q125.72 28.85 127.37 28.85L127.37 28.85Q129.03 28.85 130.05 29.84Q131.08 30.83 131.08 32.27L131.08 32.27Q131.08 33.71 130.05 34.68Q129.03 35.65 127.37 35.65ZM141.02 10.13L148.04 10.13L157.14 35.40L150.74 35.40L143.32 13.33L145.70 13.33L138.24 35.40L131.87 35.40L141.02 10.13ZM135.80 30.94L137.31 26.22L151.13 26.22L152.68 30.94L135.80 30.94ZM164.67 35.40L158.62 35.40L158.62 15.31L164.67 15.31L164.67 35.40ZM161.68 13.19L161.68 13.19Q159.92 13.19 158.80 12.18Q157.68 11.17 157.68 9.66L157.68 9.66Q157.68 8.11 158.80 7.09Q159.92 6.06 161.68 6.06L161.68 6.06Q163.41 6.06 164.52 7.09Q165.64 8.11 165.64 9.66L165.64 9.66Q165.64 11.17 164.52 12.18Q163.41 13.19 161.68 13.19Z"></path></g>
                <defs xmlns="http://www.w3.org/2000/svg">
<linearGradient id="paint0_linear_5557_2143" x1="33.5619" y1="5.89484" x2="6.90186" y2="14.6108" gradientUnits="userSpaceOnUse">
<stop offset="0.637" stop-color="#F16930"></stop>
<stop offset="0.959" stop-color="#F8C70E"></stop>
</linearGradient>
<linearGradient id="paint1_linear_5557_2143" x1="10.745" y1="28.5129" x2="22.745" y2="32.0129" gradientUnits="userSpaceOnUse">
<stop stop-color="#9BE183"></stop>
<stop offset="1" stop-color="#256B52"></stop>
</linearGradient>
<linearGradient id="paint2_linear_5557_2143" x1="32.4999" y1="30.7828" x2="29.6598" y2="23.1288" gradientUnits="userSpaceOnUse">
<stop stop-color="#1DC2C6"></stop>
<stop offset="1" stop-color="#23336B"></stop>
</linearGradient>
<linearGradient id="paint3_linear_5557_2143" x1="32.7457" y1="17.1698" x2="26.9999" y2="10.7828" gradientUnits="userSpaceOnUse">
<stop offset="0.245" stop-color="#1DC1C5"></stop>
<stop offset="1" stop-color="#9CE182"></stop>
</linearGradient>
</defs>
            </svg>